<?xml version="1.0" standalone="no"?>
<!DOCTYPE svg PUBLIC "-//W3C//DTD SVG 20010904//EN"
 "http://www.w3.org/TR/2001/REC-SVG-20010904/DTD/svg10.dtd">
<svg version="1.0" xmlns="http://www.w3.org/2000/svg"
 width="1500.000000pt" height="1600.000000pt" viewBox="0 0 1500.000000 1600.000000"
 preserveAspectRatio="xMidYMid meet">

<g transform="translate(0.000000,1600.000000) scale(0.100000,-0.100000)"
fill="#000000" stroke="none">
<path d="M0 8000 l0 -8000 7500 0 7500 0 0 8000 0 8000 -7500 0 -7500 0 0
-8000z m11610 1565 c0 -1170 -4 -1799 -11 -1863 -62 -578 -349 -1123 -784
-1489 -615 -518 -1432 -678 -2193 -428 -174 58 -384 160 -538 263 -110 74
-301 229 -366 299 l-28 29 47 65 c59 80 164 252 209 342 43 83 114 257 144
352 13 39 26 74 30 78 4 5 22 -16 41 -45 182 -284 488 -504 825 -591 645 -167
1315 138 1616 737 193 383 195 861 6 1241 -86 172 -206 330 -335 441 -194 167
-407 272 -656 326 -146 31 -408 31 -554 0 -562 -120 -990 -549 -1103 -1104
-14 -66 -24 -171 -30 -308 -18 -400 -81 -661 -236 -975 -501 -1017 -1670
-1506 -2750 -1150 -492 162 -924 500 -1208 945 -76 119 -181 343 -230 491
-235 707 -111 1478 333 2077 294 396 733 697 1209 828 230 63 347 78 612 78
199 0 254 -3 360 -22 488 -87 863 -276 1227 -618 l63 -59 -75 -109 c-140 -204
-238 -399 -316 -626 l-41 -119 -48 72 c-208 310 -520 519 -893 599 -146 31
-408 31 -554 0 -502 -108 -889 -448 -1056 -928 -54 -155 -72 -272 -72 -464 1
-182 14 -268 67 -430 148 -454 538 -817 998 -928 635 -154 1287 141 1589 719
108 207 147 373 161 683 5 116 19 265 30 331 97 590 412 1104 899 1467 277
207 635 354 1006 415 155 25 516 25 668 0 382 -64 685 -187 985 -399 45 -32
84 -58 87 -58 3 0 5 274 5 608 0 650 1 666 51 764 28 55 103 134 159 166 97
57 123 61 398 62 l252 0 0 -1765z m-10858 -8837 c3 -7 4 -23 3 -35 -1 -20 3
-23 36 -23 21 0 47 -8 60 -19 21 -17 23 -27 24 -107 0 -85 -1 -89 -22 -92 -22
-3 -23 0 -23 72 0 54 -4 79 -16 90 -18 19 -20 19 -44 6 -16 -9 -19 -22 -18
-88 1 -71 -1 -77 -21 -80 -12 -2 -21 2 -22 10 0 7 -1 73 -2 146 -2 129 -2 132
19 132 12 0 24 -6 26 -12z m408 -23 c0 -33 2 -35 35 -35 31 0 35 3 35 25 0 14
8 29 19 35 29 15 31 13 31 -25 0 -31 3 -35 25 -35 20 0 25 -5 25 -25 0 -20 -5
-25 -25 -25 -24 0 -25 -3 -25 -53 0 -48 3 -55 26 -66 16 -7 24 -18 22 -29 -5
-27 -44 -26 -73 2 -21 21 -25 34 -25 86 l0 60 -35 0 -35 0 0 -49 c0 -38 5 -53
19 -63 11 -8 21 -22 23 -33 5 -31 -36 -32 -67 -1 -21 21 -25 34 -25 86 0 33
-4 60 -10 60 -5 0 -10 11 -10 25 0 14 5 25 10 25 6 0 10 11 10 25 0 21 21 44
43 45 4 0 7 -16 7 -35z m740 0 c0 -31 3 -35 25 -35 20 0 25 -5 25 -25 0 -20
-5 -25 -25 -25 -24 0 -25 -3 -25 -53 0 -47 3 -55 24 -65 29 -13 29 -46 0 -50
-11 -2 -32 7 -47 18 -24 19 -27 28 -27 86 0 35 -4 64 -9 64 -16 0 -20 41 -5
47 8 3 14 16 14 29 0 20 22 43 43 44 4 0 7 -16 7 -35z m500 -37 l1 -73 33 38
c23 25 42 37 60 37 14 0 26 -3 26 -7 0 -4 -18 -26 -41 -49 l-41 -42 41 -52
c48 -60 50 -70 17 -70 -17 0 -33 12 -53 40 -15 22 -31 40 -35 40 -4 0 -8 -17
-10 -37 -2 -31 -7 -39 -25 -41 -23 -3 -23 -3 -23 142 l0 146 25 0 c24 0 25 -2
25 -72z m10270 -48 c0 -33 -4 -60 -10 -60 -11 0 -14 103 -3 113 12 12 13 8 13
-53z m70 23 l14 -38 15 37 c24 58 41 49 41 -22 0 -68 -19 -84 -21 -17 l-1 42
-10 -32 c-6 -18 -15 -33 -20 -33 -5 0 -15 15 -23 33 l-14 32 -1 -42 c0 -24 -4
-43 -10 -43 -6 0 -10 27 -10 60 0 71 18 81 40 23z m169 -19 c24 -64 24 -64 11
-64 -5 0 -10 7 -10 15 0 10 -10 15 -30 15 -20 0 -30 -5 -30 -15 0 -8 -4 -15
-10 -15 -13 0 -13 11 4 51 7 19 16 42 19 52 11 30 23 19 46 -39z m128 41 c2
-5 -14 -10 -34 -10 -34 0 -38 -3 -41 -28 -4 -33 13 -57 38 -57 25 0 33 27 12
39 -15 9 -14 10 6 11 20 0 23 -4 20 -27 -2 -23 -9 -29 -34 -31 -57 -6 -86 57
-47 100 18 20 74 22 80 3z m103 5 c0 -5 -11 -10 -25 -10 -16 0 -25 -6 -25 -15
0 -9 9 -15 25 -15 14 0 25 -4 25 -10 0 -5 -11 -10 -25 -10 -18 0 -25 -5 -25
-19 0 -15 8 -21 33 -24 28 -3 26 -4 -10 -5 l-43 -2 0 60 0 60 35 0 c19 0 35
-4 35 -10z m100 -50 c0 -33 -4 -60 -10 -60 -6 0 -10 27 -10 60 0 33 4 60 10
60 6 0 10 -27 10 -60z m110 40 c41 -41 13 -100 -47 -100 l-33 0 0 60 0 60 30
0 c17 0 39 -9 50 -20z m214 -2 c8 -14 5 -23 -17 -46 -34 -35 -34 -40 1 -45 19
-3 14 -4 -15 -6 -24 0 -43 1 -43 5 0 3 13 19 30 37 42 44 39 64 -7 58 -7 -1
-13 3 -13 9 0 17 52 7 64 -12z m78 5 c0 -10 2 -33 2 -51 1 -18 8 -37 16 -42
11 -7 4 -9 -25 -9 -22 1 -32 3 -22 6 13 3 17 15 17 49 0 35 -3 44 -17 44 -15
0 -16 2 -3 10 22 14 30 12 32 -7z m116 5 c18 -18 15 -33 -13 -67 l-26 -30 28
-4 c23 -3 21 -4 -9 -6 -45 -1 -47 7 -13 39 33 31 30 66 -4 62 -15 -2 -21 0
-17 7 9 15 39 14 54 -1z m101 3 c8 -5 12 -18 9 -29 -3 -10 -1 -27 4 -36 13
-24 -8 -46 -43 -46 -16 0 -29 4 -29 8 0 4 12 8 27 7 35 0 44 30 11 41 l-23 7
23 8 c40 15 26 34 -22 29 -11 -1 -15 3 -12 9 9 13 36 14 55 2z m91 -45 c0 -44
4 -55 18 -59 9 -3 -1 -5 -23 -6 -23 0 -35 3 -28 7 7 4 15 27 18 50 4 34 2 42
-10 42 -9 0 -13 5 -10 10 3 6 13 10 21 10 10 0 14 -14 14 -54z m120 45 c0 -5
-10 -11 -22 -13 -12 -2 -23 -8 -25 -15 -3 -7 3 -10 15 -7 24 7 44 -18 40 -48
-2 -16 -11 -24 -27 -26 -45 -7 -66 51 -35 96 15 22 54 31 54 13z m100 -1 c0
-5 -11 -10 -25 -10 -34 0 -31 -13 5 -27 32 -12 40 -39 18 -61 -14 -14 -58 -16
-58 -4 0 5 10 8 23 8 16 -1 23 5 25 22 3 18 -1 22 -22 22 -22 0 -26 4 -26 30
0 27 3 30 30 30 17 0 30 -4 30 -10z m88 -46 c2 -27 9 -52 15 -56 7 -4 -6 -7
-28 -7 -22 1 -32 3 -22 6 13 3 17 15 17 49 0 35 -3 44 -17 44 -15 0 -16 2 -3
10 26 16 35 5 38 -46z m112 46 c0 -5 -9 -10 -20 -10 -27 0 -25 -13 3 -25 16
-7 22 -18 22 -40 0 -27 -4 -30 -32 -33 -18 -2 -33 1 -33 6 0 6 8 8 18 5 21 -5
47 21 37 37 -3 5 -17 10 -31 10 -18 0 -24 5 -24 23 0 13 3 27 7 30 10 11 53 8
53 -3z m104 -6 c34 -34 12 -104 -32 -103 l-27 1 28 10 c15 5 27 16 27 24 0 8
-6 11 -15 8 -33 -13 -59 38 -33 64 16 16 33 15 52 -4z m-13805 -3 c8 -5 11
-16 6 -30 -5 -17 -12 -20 -28 -15 -12 3 -24 6 -27 6 -28 1 -40 -4 -40 -16 0
-15 21 -26 51 -26 25 0 59 -35 59 -60 0 -12 -12 -32 -26 -47 -23 -22 -32 -25
-80 -21 -62 5 -70 10 -56 34 7 12 23 17 57 18 65 1 70 22 10 37 -101 26 -82
127 25 128 19 0 41 -3 49 -8z m281 -75 c5 -82 19 -106 54 -93 13 5 16 22 16
92 0 84 0 85 25 85 l25 0 0 -100 c0 -99 0 -101 -26 -110 -43 -17 -98 -12 -122
10 -20 18 -22 31 -22 111 0 88 1 90 23 87 20 -3 22 -9 27 -82z m538 67 c12
-10 22 -31 22 -48 4 -65 4 -65 -56 -65 -47 0 -55 -3 -52 -17 4 -20 43 -30 61
-15 8 7 18 6 32 -4 20 -15 20 -15 -4 -35 -31 -26 -95 -25 -121 1 -16 16 -20
33 -20 90 0 57 4 74 20 90 25 25 90 27 118 3z m162 -7 c0 -19 -6 -25 -27 -28
-27 -3 -28 -5 -33 -83 -4 -72 -7 -80 -25 -80 -18 0 -20 8 -23 86 -3 84 -2 88
24 108 15 12 40 21 55 21 24 0 29 -4 29 -24z m155 13 c2 -3 2 -14 -1 -26 -5
-18 -11 -20 -50 -15 -35 4 -44 1 -44 -11 0 -16 20 -27 50 -27 26 0 62 -48 54
-74 -12 -41 -44 -58 -101 -54 -61 5 -67 9 -59 36 6 17 13 19 46 15 52 -7 77 2
60 22 -7 8 -22 15 -34 15 -38 0 -66 28 -66 65 0 47 30 68 93 62 26 -2 49 -6
52 -8z m271 -16 c3 -20 -1 -23 -26 -23 -17 0 -31 -4 -31 -10 -1 -5 -3 -14 -4
-20 -1 -5 -3 -17 -4 -25 0 -8 -10 -15 -21 -15 -17 0 -20 7 -20 44 0 35 5 48
23 61 32 23 79 16 83 -12z m228 6 c14 -11 26 -24 26 -29 0 -15 -40 -22 -55
-10 -8 6 -24 10 -37 8 -21 -3 -23 -8 -23 -58 0 -50 2 -55 23 -58 13 -2 29 2
37 8 15 12 55 5 55 -10 0 -5 -12 -18 -26 -29 -37 -29 -89 -27 -119 4 -21 20
-25 34 -25 85 0 51 4 65 25 85 30 31 82 33 119 4z m281 1 c0 -8 -10 -16 -22
-18 -18 -3 -23 2 -23 18 0 16 5 21 23 18 12 -2 22 -10 22 -18z m10825 -80 c0
-5 -4 -10 -10 -10 -5 0 -10 5 -10 10 0 6 5 10 10 10 6 0 10 -4 10 -10z
m-11270 -45 c0 -36 -5 -48 -24 -60 -34 -23 -80 -16 -84 12 -3 17 2 22 25 25
19 2 29 10 31 23 6 37 11 45 32 45 17 0 20 -6 20 -45z m11258 -171 c6 -1 17
-2 22 -2 6 -1 9 -19 9 -39 l-2 -38 -6 35 c-4 22 -12 35 -21 35 -9 0 -17 -13
-21 -35 -5 -27 -6 -22 -7 25 0 33 3 51 6 40 4 -11 13 -20 20 -21z m730 -7 l27
17 -19 -22 c-18 -21 -18 -23 -1 -42 10 -11 13 -20 8 -20 -6 0 -17 7 -24 16
-12 14 -14 14 -20 -3 -4 -10 -7 8 -7 42 1 33 3 45 5 28 l4 -33 27 17z m-509 5
c-15 -6 -10 -60 6 -65 11 -4 10 -4 -2 -3 -12 1 -20 12 -23 36 -8 47 -2 63 15
47 7 -7 9 -13 4 -15z m270 -6 c-15 -16 -10 -44 9 -56 15 -10 15 -10 -3 -8 -14
2 -22 13 -25 38 -8 47 -3 63 15 47 8 -7 10 -16 4 -21z m-319 14 c10 -6 11 -10
3 -10 -8 0 -13 -13 -13 -29 0 -16 6 -32 13 -34 7 -4 6 -6 -4 -6 -20 -1 -29 19
-29 60 0 31 6 35 30 19z m-575 -27 c10 40 18 26 10 -17 -9 -43 -20 -46 -33 -8
l-10 27 -7 -27 c-10 -37 -19 -35 -32 7 -6 19 -8 35 -3 35 4 0 11 -10 15 -22 5
-17 8 -19 11 -8 16 45 16 45 29 15 l13 -30 7 28z m69 0 c7 30 26 28 26 -4 0
-10 5 -19 10 -19 6 0 10 9 10 19 0 11 5 23 11 27 7 4 9 -1 5 -15 -3 -11 -9
-30 -12 -41 -8 -28 -21 -25 -29 8 l-7 27 -13 -30 -13 -30 -11 28 c-15 39 -13
69 3 32 l13 -30 7 28z m98 -8 c4 -17 6 -16 17 10 10 23 14 26 21 15 6 -8 10
-24 11 -35 0 -14 5 -9 14 15 l14 35 -6 -40 c-3 -22 -7 -42 -9 -44 -7 -8 -24
12 -24 30 0 11 -4 17 -10 14 -5 -3 -10 -15 -10 -26 0 -26 -17 -24 -25 4 -16
56 -17 62 -7 52 5 -5 12 -19 14 -30z m178 25 c0 -5 -6 -7 -14 -4 -26 10 -26
-13 0 -25 33 -15 26 -36 -12 -38 -20 -1 -22 0 -6 4 27 6 29 20 2 28 -20 6 -26
25 -13 38 10 11 43 8 43 -3z m180 -30 c0 -37 -2 -40 -29 -40 -32 0 -43 21 -30
55 6 16 8 14 8 -12 1 -55 41 -37 41 18 0 10 2 19 5 19 3 0 5 -18 5 -40z m190
25 c15 -18 5 -36 -16 -28 -12 5 -13 7 -3 14 8 4 10 11 7 14 -12 12 -28 -6 -28
-30 0 -16 7 -25 23 -28 15 -4 12 -5 -8 -4 -23 2 -31 7 -33 25 -6 42 33 68 58
37z m57 -3 c-8 -9 -17 -28 -20 -42 -3 -17 -5 -12 -6 15 -1 35 2 41 20 42 19 2
20 0 6 -15z m61 11 c-24 -6 -23 -24 2 -30 31 -8 21 -38 -13 -39 -25 -1 -25 -1
-2 3 26 5 35 23 11 23 -7 0 -18 6 -25 13 -13 16 4 38 29 36 11 -1 11 -2 -2 -6z
m152 -7 c20 -26 8 -61 -22 -64 -22 -3 -29 2 -34 22 -11 44 29 74 56 42z m62 3
c-31 -12 -26 -50 8 -61 23 -6 23 -7 -5 -5 -25 2 -31 7 -33 31 -4 29 10 46 38
45 8 0 5 -4 -8 -10z m223 1 c3 -5 0 -7 -8 -4 -18 6 -41 -21 -34 -40 3 -8 16
-17 29 -19 16 -4 14 -5 -7 -4 -23 2 -31 7 -33 25 -6 38 36 70 53 42z m84 -12
c12 -31 -5 -60 -32 -56 -16 2 -23 11 -25 32 -6 46 42 65 57 24z m133 8 c4 -6
7 -24 7 -41 l-1 -30 -8 33 c-4 18 -10 35 -13 39 -12 11 -27 -10 -28 -40 l-2
-32 -6 35 c-4 22 -12 35 -21 35 -9 0 -17 -13 -21 -35 l-6 -35 -2 40 -1 41 48
0 c26 0 50 -4 54 -10z m-1217 -56 c3 -5 1 -10 -4 -10 -6 0 -11 5 -11 10 0 6 2
10 4 10 3 0 8 -4 11 -10z m920 0 c3 -5 1 -10 -4 -10 -6 0 -11 5 -11 10 0 6 2
10 4 10 3 0 8 -4 11 -10z"/>
<path d="M12870 643 c0 -6 -3 -18 -6 -27 -4 -12 0 -16 15 -16 12 0 21 4 21 8
0 13 -29 48 -30 35z"/>
<path d="M13290 615 c0 -46 7 -53 41 -35 36 20 18 80 -23 80 -15 0 -18 -8 -18
-45z"/>
<path d="M14024 605 c-7 -18 3 -35 21 -35 15 0 28 27 19 41 -8 14 -34 11 -40
-6z"/>
<path d="M14429 654 c-10 -12 -9 -18 3 -31 19 -18 38 -10 38 17 0 24 -25 33
-41 14z"/>
<path d="M1400 600 c0 -16 7 -20 36 -20 29 0 35 3 30 16 -3 9 -6 18 -6 20 0 2
-13 4 -30 4 -23 0 -30 -4 -30 -20z"/>
<path d="M13941 333 c-12 -24 2 -48 23 -40 20 8 21 31 2 46 -12 10 -17 8 -25
-6z"/>
<path d="M14304 336 c-8 -22 3 -49 19 -43 6 2 12 14 12 27 0 27 -22 39 -31 16z"/>
</g>
</svg>
